<?xml version="1.0" encoding="utf-8"?>
<!-- Generator: Adobe Illustrator 16.0.0, SVG Export Plug-In . SVG Version: 6.00 Build 0)  -->
<!DOCTYPE svg PUBLIC "-//W3C//DTD SVG 1.1//EN" "http://www.w3.org/Graphics/SVG/1.1/DTD/svg11.dtd">
<svg version="1.1" id="Layer_1" xmlns="http://www.w3.org/2000/svg" xmlns:xlink="http://www.w3.org/1999/xlink" x="0px" y="0px"
	 width="215.825px" height="215.207px" viewBox="0 0 215.825 215.207" enable-background="new 0 0 215.825 215.207"
	 xml:space="preserve">
<g>
	<path fill="#EDDA7D" stroke="#442E22" stroke-width="1.5" stroke-miterlimit="10" d="M148.096,200.072
		c-0.697-0.311-1.154-0.677-1.369-1.098c-0.213-0.422-0.143-1.16,0.217-2.215c0.209-0.605,0.547-1.027,1.01-1.262
		c0.463-0.235,1.316-0.15,2.562,0.255c0.375,0.165,0.842,0.264,1.4,0.302c0.561,0.037,1.021-0.035,1.385-0.221
		c1.537-0.781,1.986-1.799,1.348-3.055c-0.193-0.381-0.566-0.592-1.117-0.634c-0.553-0.041-1.17,0.04-1.857,0.243
		c-0.688,0.204-1.459,0.362-2.314,0.476c-0.857,0.114-1.689,0.156-2.492,0.13c-0.805-0.028-1.609-0.311-2.412-0.848
		c-0.803-0.538-1.475-1.336-2.012-2.393c-0.74-1.454-0.844-2.996-0.311-4.629c0.531-1.633,1.73-2.923,3.598-3.872
		c0.99-0.505,1.959-0.836,2.908-0.997c0.947-0.159,1.646-0.187,2.094-0.083l0.859,0.157c0.756,0.219,1.217,0.492,1.385,0.822
		c0.17,0.33,0.201,0.887,0.1,1.666c-0.143,1.111-0.51,1.818-1.105,2.121c-0.346,0.176-0.859,0.23-1.541,0.16
		c-0.064-0.009-0.203-0.043-0.41-0.104s-0.391-0.103-0.547-0.127c-0.457-0.037-0.953,0.079-1.49,0.353
		c-0.537,0.272-0.918,0.628-1.143,1.064c-0.227,0.438-0.223,0.882,0.01,1.336c0.23,0.454,0.627,0.716,1.191,0.782
		s1.186-0.011,1.863-0.23c0.678-0.221,1.441-0.416,2.291-0.587c0.848-0.172,1.662-0.27,2.439-0.291
		c0.779-0.022,1.566,0.228,2.361,0.748c0.797,0.521,1.467,1.318,2.014,2.392c0.545,1.074,0.811,2.129,0.797,3.166
		c-0.014,1.036-0.254,1.953-0.721,2.753c-0.893,1.556-2.1,2.72-3.619,3.493c-0.777,0.395-1.561,0.673-2.35,0.836
		c-0.791,0.163-1.473,0.214-2.045,0.15c-1.143-0.083-2.016-0.285-2.615-0.604L148.096,200.072z"/>
	<path fill="#EDDA7D" stroke="#442E22" stroke-width="1.5" stroke-miterlimit="10" d="M171.155,178.346
		c0.684,0.911,0.965,1.756,0.842,2.532c-0.125,0.777-0.461,1.371-1.008,1.782l-5.268,3.958c0.311,0.415,0.818,0.58,1.518,0.493
		c0.701-0.085,1.295-0.312,1.785-0.681c0.859-0.645,1.467-1.24,1.822-1.785l0.178-0.273c0.232-0.43,0.467-0.734,0.705-0.912
		c0.473-0.355,1.131-0.328,1.973,0.082c0.494,0.256,0.846,0.523,1.059,0.805c0.99,1.32-0.092,3.164-3.248,5.535
		c-1.098,0.825-2.213,1.367-3.35,1.631c-1.135,0.262-2.174,0.26-3.115-0.007c-1.836-0.498-3.311-1.488-4.424-2.972
		c-1.402-1.866-1.92-3.812-1.553-5.838c0.367-2.027,1.453-3.719,3.262-5.077c2.061-1.547,4.117-1.956,6.17-1.228
		C169.586,176.783,170.469,177.435,171.155,178.346z M166.958,182.526c0.562-0.423,0.666-0.872,0.311-1.346
		c-0.256-0.342-0.592-0.518-1.008-0.53c-0.414-0.013-0.863,0.162-1.346,0.523c-0.48,0.362-0.811,0.918-0.99,1.666
		c-0.18,0.749-0.102,1.346,0.232,1.79L166.958,182.526z"/>
	<path fill="#EDDA7D" stroke="#442E22" stroke-width="1.5" stroke-miterlimit="10" d="M182.569,166.451
		c0.83,0.781,1.252,1.564,1.262,2.351c0.012,0.788-0.219,1.431-0.688,1.93l-4.514,4.798c0.377,0.357,0.904,0.433,1.58,0.228
		c0.676-0.204,1.223-0.529,1.641-0.975c0.736-0.782,1.234-1.474,1.49-2.071l0.129-0.299c0.156-0.464,0.336-0.803,0.539-1.02
		c0.406-0.432,1.059-0.517,1.959-0.257c0.529,0.167,0.924,0.372,1.18,0.612c1.201,1.131,0.449,3.135-2.256,6.01
		c-0.939,0.999-1.945,1.725-3.02,2.176c-1.074,0.454-2.098,0.629-3.072,0.527c-1.893-0.178-3.516-0.901-4.865-2.171
		c-1.701-1.6-2.543-3.429-2.527-5.488s0.797-3.911,2.346-5.56c1.766-1.876,3.723-2.631,5.871-2.265
		C180.756,165.179,181.739,165.67,182.569,166.451z M179.147,171.286c0.482-0.513,0.508-0.972,0.076-1.379
		c-0.311-0.292-0.672-0.409-1.082-0.351c-0.412,0.059-0.824,0.307-1.236,0.746c-0.412,0.438-0.643,1.043-0.691,1.811
		c-0.049,0.77,0.129,1.344,0.535,1.724L179.147,171.286z"/>
	<path fill="#EDDA7D" stroke="#442E22" stroke-width="1.5" stroke-miterlimit="10" d="M179.7,149.935
		c-0.148-0.264-0.172-0.572-0.072-0.929c0.102-0.354,0.312-0.776,0.633-1.264c0.322-0.487,0.625-0.847,0.912-1.081
		c0.287-0.232,0.584-0.331,0.893-0.294s0.561,0.103,0.754,0.196s0.467,0.258,0.822,0.492l13.861,9.128
		c0.357,0.234,0.617,0.423,0.779,0.562c0.162,0.141,0.311,0.344,0.445,0.61c0.266,0.508,0.045,1.3-0.664,2.375
		c-0.709,1.076-1.482,1.426-2.322,1.051c0.314,1.139,0.09,2.289-0.674,3.449c-0.918,1.394-2.361,2.264-4.33,2.607
		c-1.971,0.346-3.764-0.015-5.381-1.08c-1.617-1.064-2.658-2.576-3.121-4.534c-0.465-1.958-0.242-3.626,0.664-5.005
		c0.754-1.145,1.729-1.779,2.92-1.904l-4.875-3.212c-0.357-0.233-0.615-0.421-0.779-0.562
		C180.002,150.402,179.846,150.199,179.7,149.935z M189.833,162.019c0.684-0.128,1.213-0.478,1.592-1.051
		c0.377-0.572,0.48-1.186,0.312-1.84c-0.168-0.655-0.504-1.148-1.006-1.479c-0.504-0.332-1.092-0.459-1.766-0.38
		c-0.672,0.079-1.213,0.427-1.621,1.046c-0.406,0.619-0.52,1.255-0.34,1.906c0.182,0.652,0.527,1.146,1.039,1.482
		C188.553,162.042,189.151,162.146,189.833,162.019z"/>
	<path fill="#EDDA7D" stroke="#442E22" stroke-width="1.5" stroke-miterlimit="10" d="M200.323,153.138
		c-0.346,0.231-0.74,0.248-1.18,0.052c-0.439-0.197-0.963-0.817-1.572-1.862c-0.205-0.313-0.215-0.678-0.029-1.093
		c0.186-0.414,0.645-0.884,1.377-1.409s1.227-1.076,1.484-1.65c0.461-1.033,0.488-1.64,0.082-1.821
		c-0.32-0.144-0.811,0.317-1.471,1.383c-0.629,0.998-1.498,1.877-2.611,2.639c-0.523,0.354-1.184,0.547-1.979,0.577
		c-0.795,0.029-1.641-0.155-2.537-0.557c-2.674-1.196-3.189-3.629-1.547-7.301c0.537-1.201,1.377-2.307,2.52-3.318
		c0.535-0.471,1.006-0.616,1.414-0.436c0.404,0.184,0.82,0.592,1.246,1.229s0.551,1.15,0.377,1.54
		c-0.09,0.202-0.385,0.522-0.885,0.958c-0.5,0.438-0.895,0.977-1.182,1.619c-0.447,0.999-0.482,1.58-0.111,1.746
		c0.508,0.229,1.096-0.2,1.762-1.281c0.617-1.064,1.424-2.004,2.418-2.817c0.455-0.384,1.051-0.612,1.781-0.681
		s1.537,0.094,2.416,0.488c0.881,0.393,1.555,0.893,2.025,1.498c0.469,0.605,0.723,1.273,0.764,2.002
		c0.041,1.317-0.305,2.792-1.035,4.425C203.12,150.701,201.944,152.057,200.323,153.138z"/>
</g>
</svg>
