<?xml version="1.0" encoding="utf-8"?>
<!-- Generator: Adobe Illustrator 16.0.0, SVG Export Plug-In . SVG Version: 6.00 Build 0)  -->
<!DOCTYPE svg PUBLIC "-//W3C//DTD SVG 1.1//EN" "http://www.w3.org/Graphics/SVG/1.1/DTD/svg11.dtd">
<svg version="1.1" id="Layer_1" xmlns="http://www.w3.org/2000/svg" xmlns:xlink="http://www.w3.org/1999/xlink" x="0px" y="0px"
	 width="45.586px" height="69.175px" viewBox="0 0 45.586 69.175" enable-background="new 0 0 45.586 69.175" xml:space="preserve">
<g id="seed_2_">
	<path fill="#F9F4DC" stroke="#333333" stroke-miterlimit="10" d="M33.929,5.735c0,0-2.788-1.805-4.331-0.355
		c0,0-4.771-3.347-7.424,0.942c0,0-9.217,17.788-10.437,19.877c0,0-7.559,17.616-6.804,30.493c0,0,1.364,6.14,11.907,9.244
		c0,0,21.191,6.97,24.905-34.159C41.747,31.778,42.303,15.445,33.929,5.735z"/>
	<path fill="#333333" d="M26.879,4.548c0,0-4-0.103-4.101,5.733c0,0-4.378,14.572-7.909,18.571c0,0-20.779,28.912,3.946,37.747
		c0,0,24.37,0.708,19.634-40.773c0,0-0.029-20.81-8.84-20.382C29.611,5.444,28.697,3.989,26.879,4.548z"/>
	<path fill="#F9F4DC" d="M29.648,6.312c0,0,7.369,36.659-10.443,60.025c0,0,12.113-11.455,12.549-32.298
		C31.754,34.039,32.988,11.852,29.648,6.312z"/>
	<path fill="#F9F4DC" d="M28.519,4.874c0,0-20.912,53.967-12.011,60.444c0,0-3.152-10.992,3.591-32.081
		C20.099,33.237,28.045,6.319,28.519,4.874z"/>
</g>
</svg>
