<?xml version="1.0" encoding="utf-8"?>
<!-- Generator: Adobe Illustrator 16.0.0, SVG Export Plug-In . SVG Version: 6.00 Build 0)  -->
<!DOCTYPE svg PUBLIC "-//W3C//DTD SVG 1.1//EN" "http://www.w3.org/Graphics/SVG/1.1/DTD/svg11.dtd">
<svg version="1.1" id="Layer_1" xmlns="http://www.w3.org/2000/svg" xmlns:xlink="http://www.w3.org/1999/xlink" x="0px" y="0px"
	 width="317px" height="318px" viewBox="0 0 317 318" enable-background="new 0 0 317 318" xml:space="preserve">
<g>
	<circle fill="#FFFFFF" cx="161.043" cy="158.995" r="122.5"/>
	<g>
		<g>
			<g>
				<path fill="#EDDA7D" stroke="#C89D2C" stroke-width="5" stroke-miterlimit="10" d="M286.495,210.312
					c1.06-0.83,4.537-1.606,7.793-2.31c3.215-0.688,6.149-1.319,6.149-1.319c2.627-0.641,4.756-1.533,6.433-2.541
					c1.639-1.02,2.856-2.142,3.758-3.228c0.898-1.087,1.489-2.134,1.854-3.026c0.339-0.897,0.479-1.636,0.535-2.104
					c0.25-1.316,0.368-3.352-0.418-5.84c-0.858-2.497-2.61-5.445-5.978-8.432c0,0-2.342-1.921-4.906-4.023
					c-2.55-2.129-5.17-4.416-5.794-5.648c0,0-0.662-1.06-1.938-2.5c-1.297-1.441-3.123-3.242-5.666-4.751
					c-2.52-1.515-5.584-2.718-9.101-3.127c-3.516-0.419-7.485-0.037-11.808,1.343c0,0-1.143,0.324-2.855,1.029
					c-1.697,0.705-4.096,1.77-6.447,3.212c-2.312,1.451-4.854,3.233-6.797,5.479c-1.002,1.119-1.965,2.341-2.668,3.726
					c-0.711,1.386-1.402,2.883-1.729,4.62l0.064,0.018c-0.322,1.606-0.416,3.141-0.254,4.646c0.08,1.479,0.354,2.914,0.797,4.313
					c0.457,1.404,0.914,2.713,1.547,3.998c0.602,1.272,1.336,2.508,2.017,3.625c1.37,2.236,2.869,4.15,4.024,5.497
					c1.156,1.347,1.976,2.118,1.976,2.118c3.171,3.219,6.497,5.398,9.812,6.666c3.293,1.27,6.629,1.66,9.5,1.458
					c2.892-0.185,5.432-0.896,7.252-1.571c0.918-0.332,1.621-0.671,2.104-0.921C286.23,210.473,286.495,210.312,286.495,210.312z"/>
			</g>
			<g>
				<path fill="#EDDA7D" stroke="#C89D2C" stroke-width="5" stroke-miterlimit="10" d="M248.268,262.709
					c1.321-0.243,4.758,0.684,7.965,1.574c3.166,0.887,6.058,1.695,6.058,1.695c2.621,0.654,4.919,0.856,6.866,0.746
					c1.923-0.138,3.521-0.561,4.82-1.1c1.297-0.543,2.314-1.184,3.037-1.812c0.719-0.635,1.186-1.22,1.453-1.604
					c0.828-1.051,1.899-2.771,2.336-5.354c0.398-2.61,0.258-6.004-1.365-10.238c0,0-1.203-2.797-2.451-5.84
					c-0.62-1.524-1.25-3.111-1.717-4.479c-0.48-1.377-0.82-2.551-0.785-3.229c0,0-0.084-1.242-0.531-3.106
					c-0.227-0.933-0.538-2.017-0.986-3.178c-0.472-1.179-1.072-2.431-1.826-3.681c-1.51-2.508-3.648-4.994-6.565-6.99
					c-2.912-2.006-6.608-3.521-11.091-4.326c0,0-1.166-0.249-3.019-0.432c-0.926-0.092-2.021-0.168-3.222-0.195
					c-1.227-0.043-2.572-0.047-3.96,0.033c-1.394,0.078-2.818,0.246-4.251,0.52c-1.473,0.248-2.936,0.613-4.328,1.148
					c-2.831,1.05-5.502,2.662-7.795,5.363l0.05,0.045c-1.028,1.287-1.84,2.6-2.399,4.013c-0.621,1.354-1.049,2.757-1.312,4.204
					c-0.258,1.453-0.457,2.837-0.497,4.27c-0.062,1.406,0.022,2.854,0.097,4.146c0.174,2.623,0.615,5.019,1.017,6.748
					c0.401,1.734,0.763,2.789,0.763,2.789c1.314,4.318,3.256,7.797,5.604,10.453c2.328,2.648,5.104,4.541,7.748,5.699
					c2.645,1.176,5.223,1.723,7.146,1.967c0.965,0.127,1.756,0.168,2.294,0.166C247.96,262.729,248.268,262.709,248.268,262.709z"/>
			</g>
			<g>
				<path fill="#EDDA7D" stroke="#C89D2C" stroke-width="5" stroke-miterlimit="10" d="M190.064,291.384
					c1.285,0.403,3.897,2.827,6.324,5.111c2.394,2.254,4.577,4.312,4.577,4.312c2.019,1.799,3.964,3.049,5.742,3.854
					c1.771,0.771,3.386,1.138,4.791,1.264c1.403,0.121,2.604,0.021,3.542-0.193c0.934-0.23,1.619-0.533,2.037-0.752
					c1.227-0.545,2.973-1.588,4.568-3.662c1.568-2.127,3.013-5.223,3.551-9.707c0,0,0.255-3.018,0.533-6.319
					c0.32-3.278,0.689-6.783,1.356-7.985c0,0,0.5-1.144,0.966-3.006c0.23-0.932,0.452-2.041,0.596-3.275
					c0.14-1.241,0.177-2.646,0.088-4.103c-0.178-2.923-0.924-6.12-2.586-9.241c-1.651-3.128-4.226-6.181-7.822-8.968
					c0,0-0.918-0.76-2.475-1.774c-0.779-0.515-1.705-1.073-2.769-1.674c-1.069-0.608-2.257-1.229-3.522-1.801
					c-1.271-0.579-2.601-1.068-4.01-1.515c-1.416-0.461-2.878-0.812-4.355-0.981c-1.479-0.16-3.04-0.287-4.577-0.078
					c-0.765,0.115-1.562,0.225-2.365,0.405c-0.801,0.187-1.606,0.446-2.42,0.793l0.022,0.063c-1.504,0.651-2.82,1.438-3.969,2.428
					c-1.172,0.911-2.197,1.945-3.1,3.104c-0.895,1.183-1.717,2.293-2.415,3.543c-0.705,1.221-1.308,2.512-1.838,3.724
					c-1.065,2.394-1.792,4.711-2.244,6.425c-0.453,1.715-0.624,2.826-0.624,2.826c-0.848,4.467-0.757,8.414,0.083,11.871
					c0.827,3.449,2.396,6.386,4.19,8.641c1.793,2.278,3.82,3.971,5.41,5.088c0.797,0.571,1.471,0.938,1.951,1.202
					C189.784,291.258,190.064,291.384,190.064,291.384z"/>
			</g>
			<g>
				<path fill="#EDDA7D" stroke="#C89D2C" stroke-width="5" stroke-miterlimit="10" d="M125.233,289.714
					c0.478,0.484,1.002,1.591,1.556,2.94c0.558,1.33,1.14,2.937,1.687,4.488c1.069,3.135,2.045,5.996,2.045,5.996
					c1.909,5.072,4.597,7.852,6.955,9.428c2.383,1.468,4.442,1.699,5.378,1.714c0.668,0.054,1.505,0.065,2.476-0.091
					c0.971-0.18,2.074-0.506,3.26-1.064c2.369-1.119,5.074-3.145,7.629-6.95c0,0,1.61-2.565,3.4-5.305
					c1.805-2.695,3.759-5.772,4.908-6.46c0,0,3.906-3.03,6.293-8.411c1.207-2.657,2.039-5.821,2.025-9.356
					c-0.002-3.533-0.854-7.438-2.738-11.597c0,0-0.457-1.104-1.361-2.735c-0.904-1.656-2.234-3.737-3.954-5.989
					c-1.722-2.224-3.802-4.345-6.277-6.13c-0.62-0.433-1.265-0.824-1.94-1.17c-0.672-0.366-1.369-0.733-2.101-1.021
					c-0.731-0.292-1.496-0.528-2.299-0.702c-0.801-0.193-1.631-0.385-2.513-0.472l-0.009,0.065c-0.82-0.057-1.622-0.018-2.396,0.037
					c-0.77,0.029-1.52,0.122-2.254,0.27c-0.734,0.146-1.452,0.347-2.154,0.591c-0.696,0.215-1.373,0.453-2.037,0.741
					c-1.325,0.561-2.602,1.31-3.792,2.061c-1.186,0.735-2.305,1.557-3.339,2.395c-1.033,0.838-1.985,1.705-2.821,2.507
					c-0.831,0.782-1.555,1.528-2.149,2.175c-1.19,1.292-1.854,2.189-1.854,2.189c-2.822,3.572-4.588,7.153-5.44,10.586
					c-0.862,3.431-0.818,6.712-0.288,9.591c0.264,1.438,0.643,2.778,1.071,3.969c0.437,1.162,0.92,2.185,1.37,3.031
					C124.472,288.727,125.233,289.714,125.233,289.714z"/>
			</g>
			<g>
				<path fill="#EDDA7D" stroke="#C89D2C" stroke-width="5" stroke-miterlimit="10" d="M68.599,258.074
					c0.362,1.324-0.124,4.822-0.593,8.078c-0.488,3.256-0.994,6.26-0.994,6.26c-0.651,5.341,0.375,9.113,1.759,11.559
					c1.415,2.418,3.121,3.592,3.94,4.045c1.104,0.754,3.016,1.502,5.621,1.647c1.312,0.058,2.781-0.015,4.465-0.431
					c1.682-0.412,3.535-1.096,5.539-2.153c0,0,2.616-1.478,5.481-3.095c2.902-1.629,6.018-3.348,7.36-3.426
					c0,0,0.302-0.056,0.829-0.188c0.523-0.125,1.284-0.36,2.189-0.712c1.81-0.696,4.182-1.844,6.469-3.617
					c2.287-1.758,4.529-4.262,6.155-7.393c1.642-3.142,2.693-6.983,2.936-11.489c0,0,0.105-1.187,0.072-3.068
					c-0.033-1.879-0.199-4.438-0.711-7.132c-0.252-1.354-0.559-2.812-0.999-4.206c-0.434-1.407-1.005-2.751-1.668-4.134
					c-1.376-2.686-3.317-5.104-6.241-7.098l-0.039,0.056c-0.699-0.435-1.411-0.795-2.135-1.093
					c-0.715-0.311-1.406-0.604-2.127-0.813c-1.437-0.43-2.919-0.637-4.34-0.782c-1.437-0.123-2.908-0.072-4.324,0.049
					c-1.394,0.097-2.768,0.299-4.075,0.558c-1.305,0.258-2.551,0.58-3.667,0.901c-1.101,0.306-2.09,0.627-2.917,0.924
					c-1.656,0.59-2.661,1.076-2.661,1.076c-4.161,1.85-7.388,4.201-9.738,6.846c-2.356,2.636-3.842,5.562-4.71,8.357
					c-0.435,1.395-0.724,2.758-0.896,4.008c-0.155,1.232-0.204,2.363-0.2,3.32C68.385,256.848,68.599,258.074,68.599,258.074z"/>
			</g>
			<g>
				<path fill="#EDDA7D" stroke="#C89D2C" stroke-width="5" stroke-miterlimit="10" d="M33.115,203.775
					c-0.126,0.668-0.745,1.729-1.534,2.949c-0.78,1.215-1.772,2.605-2.741,3.938c-1.976,2.658-3.779,5.088-3.779,5.088
					c-3.071,4.441-3.874,8.253-3.802,11.074c0.139,2.8,1.112,4.632,1.63,5.412c0.632,1.181,1.961,2.738,4.217,4.068
					c1.133,0.66,2.49,1.266,4.15,1.692c1.684,0.411,3.645,0.661,5.913,0.649c0,0,2.999-0.097,6.284-0.2
					c3.328-0.104,6.889-0.187,8.117,0.364c0,0,0.293,0.092,0.823,0.217c0.528,0.125,1.291,0.285,2.262,0.389
					c1.928,0.22,4.563,0.3,7.413-0.213c2.834-0.491,5.984-1.671,8.877-3.689c2.913-2.021,5.626-4.936,7.93-8.816
					c0,0,0.651-1.01,1.491-2.69c0.84-1.68,1.875-4.024,2.664-6.649c0.423-1.334,0.808-2.754,1.065-4.196
					c0.252-1.44,0.391-2.914,0.437-4.442c0.041-1.523-0.188-2.994-0.487-4.555c-0.331-1.541-0.963-3.039-1.756-4.62l-0.06,0.03
					c-0.42-0.706-0.885-1.354-1.39-1.948c-0.468-0.614-0.961-1.183-1.499-1.704c-0.535-0.521-1.105-0.999-1.703-1.439
					c-0.589-0.443-1.155-0.87-1.772-1.252c-1.213-0.772-2.547-1.402-3.848-1.953c-1.277-0.56-2.587-1.016-3.865-1.391
					c-1.275-0.376-2.527-0.668-3.666-0.899c-1.116-0.24-2.14-0.413-3.009-0.536c-1.739-0.247-2.854-0.283-2.854-0.283
					c-4.541-0.297-8.492,0.282-11.802,1.529c-3.313,1.236-5.991,3.135-8.061,5.205c-1.033,1.033-1.927,2.107-2.658,3.135
					c-0.709,1.02-1.278,1.998-1.72,2.85C33.496,202.589,33.115,203.775,33.115,203.775z"/>
			</g>
			<g>
				<path fill="#EDDA7D" stroke="#C89D2C" stroke-width="5" stroke-miterlimit="10" d="M26.959,139.21
					c-0.823,1.061-4,2.651-6.982,4.115c-2.965,1.438-5.673,2.75-5.673,2.75c-4.783,2.504-7.342,5.492-8.5,8.015
					c-1.198,2.532-1.248,4.597-1.115,5.525c0.08,1.332,0.478,3.324,1.839,5.544c0.34,0.555,0.741,1.122,1.21,1.694
					c0.493,0.573,1.059,1.15,1.703,1.727c1.289,1.148,2.897,2.283,4.9,3.331c0,0,2.708,1.312,5.673,2.749
					c2.982,1.464,6.159,3.053,6.982,4.113c0,0,0.851,0.879,2.466,1.973c1.598,1.095,3.885,2.396,6.64,3.273
					c2.761,0.881,6.082,1.31,9.584,0.871c3.518-0.432,7.279-1.746,11.129-4.104c0-0.001,1.021-0.584,2.561-1.683
					c1.53-1.094,3.546-2.685,5.477-4.637c0.939-0.972,1.996-2.058,2.891-3.212c0.937-1.161,1.679-2.389,2.446-3.724
					c0.75-1.334,1.296-2.745,1.684-4.268c0.464-1.529,0.609-3.16,0.601-4.941h-0.067c-0.033-1.651-0.423-3.183-0.86-4.61
					c-0.43-1.425-1.067-2.76-1.839-4.019c-0.71-1.25-1.535-2.42-2.447-3.517c-0.911-1.095-1.9-2.115-2.817-3.033
					c-1.877-1.844-3.799-3.342-5.25-4.37c-1.459-1.032-2.414-1.578-2.414-1.578c-3.85-2.359-7.61-3.675-11.129-4.106
					c-3.502-0.438-6.824-0.011-9.584,0.872c-2.755,0.877-5.042,2.179-6.641,3.275C27.81,138.33,26.959,139.21,26.959,139.21z"/>
			</g>
			<g>
				<path fill="#EDDA7D" stroke="#C89D2C" stroke-width="5" stroke-miterlimit="10" d="M51.538,79.156
					c-1.228,0.551-4.789,0.468-8.117,0.366c-3.285-0.104-6.284-0.199-6.284-0.199c-2.7-0.009-4.993,0.335-6.846,0.917
					c-1.837,0.592-3.291,1.386-4.427,2.22c-2.304,1.658-3.213,3.523-3.547,4.401c-0.554,1.22-1.191,3.147-0.993,5.768
					c0.235,2.633,1.182,5.898,3.77,9.625c0,0,1.804,2.428,3.779,5.087c0.969,1.332,1.961,2.723,2.741,3.938
					c0.79,1.219,1.408,2.28,1.535,2.948c0,0,0.381,1.188,1.265,2.891c0.442,0.851,1.011,1.829,1.72,2.848
					c0.731,1.026,1.625,2.101,2.658,3.133c2.07,2.071,4.747,3.969,8.06,5.206c3.311,1.247,7.261,1.826,11.802,1.53
					c0,0,1.191-0.039,3.03-0.308c0.921-0.133,1.994-0.324,3.175-0.582c1.205-0.25,2.507-0.571,3.835-0.981
					c1.333-0.408,2.668-0.913,4-1.518c1.369-0.591,2.699-1.293,3.921-2.144c2.496-1.689,4.693-3.885,6.274-7.043l-0.06-0.032
					c0.68-1.497,1.164-2.955,1.369-4.458c0.266-1.468,0.359-2.922,0.267-4.39c-0.11-1.48-0.232-2.861-0.538-4.262
					c-0.277-1.382-0.693-2.757-1.084-4.007c-0.792-2.504-1.789-4.724-2.589-6.308c-0.799-1.586-1.41-2.531-1.409-2.531
					c-2.304-3.882-5.017-6.797-7.93-8.818c-2.893-2.018-6.043-3.198-8.877-3.688c-2.851-0.513-5.486-0.432-7.414-0.212
					c-0.972,0.104-1.734,0.262-2.262,0.388C51.832,79.064,51.538,79.156,51.538,79.156z"/>
			</g>
			<g>
				<path fill="#EDDA7D" stroke="#C89D2C" stroke-width="5" stroke-miterlimit="10" d="M101.16,37.399
					c-1.343-0.079-4.459-1.797-7.362-3.426c-2.865-1.617-5.481-3.094-5.481-3.094c-2.392-1.262-4.57-1.995-6.497-2.362
					c-1.9-0.324-3.554-0.291-4.946-0.076c-1.391,0.218-2.525,0.609-3.387,1.036c-0.849,0.446-1.441,0.904-1.793,1.216
					c-1.057,0.821-2.499,2.251-3.548,4.645c-1.009,2.438-1.669,5.782-1.111,10.268c0,0,0.506,3.004,0.994,6.258
					c0.47,3.255,0.957,6.753,0.595,8.078c0,0-0.213,1.228-0.221,3.146c-0.003,0.958,0.046,2.088,0.201,3.32
					c0.172,1.25,0.461,2.614,0.896,4.008c0.868,2.795,2.354,5.72,4.71,8.357c2.349,2.644,5.576,4.996,9.737,6.846
					c0,0,1.073,0.519,2.828,1.136c0.878,0.31,1.919,0.641,3.085,0.959c1.185,0.337,2.488,0.656,3.855,0.908
					c1.374,0.257,2.789,0.423,4.257,0.509c1.489,0.108,2.995,0.099,4.476-0.092c1.473-0.203,3.026-0.455,4.472-1.03
					c1.447-0.578,2.971-1.233,4.372-2.322l-0.038-0.056c1.312-0.993,2.4-2.084,3.281-3.321c0.929-1.155,1.669-2.423,2.269-3.764
					c0.6-1.339,1.116-2.64,1.496-4.02c0.393-1.353,0.655-2.775,0.894-4.046c0.454-2.588,0.597-5.018,0.622-6.793
					c0.024-1.78-0.075-2.889-0.075-2.889c-0.242-4.507-1.293-8.349-2.935-11.491c-1.626-3.129-3.868-5.634-6.156-7.391
					c-2.287-1.773-4.659-2.921-6.47-3.617c-0.906-0.351-1.667-0.587-2.19-0.713C101.463,37.454,101.16,37.399,101.16,37.399z"/>
			</g>
			<g>
				<path fill="#EDDA7D" stroke="#C89D2C" stroke-width="5" stroke-miterlimit="10" d="M164.529,23.543
					c-1.15-0.686-3.104-3.764-4.91-6.459c-1.791-2.738-3.401-5.305-3.401-5.305c-3.052-4.549-6.313-6.546-8.97-7.5
					c-2.669-0.976-4.716-0.607-5.629-0.413c-1.318,0.241-3.268,0.777-5.308,2.458c-2.034,1.689-4.187,4.302-5.783,8.563
					c0,0-0.976,2.862-2.044,5.996c-0.547,1.552-1.129,3.158-1.687,4.489c-0.554,1.35-1.078,2.455-1.555,2.939
					c0,0-0.761,0.987-1.662,2.681c-0.45,0.847-0.933,1.869-1.37,3.031c-0.428,1.189-0.807,2.531-1.07,3.968
					c-0.531,2.879-0.575,6.16,0.288,9.589c0.853,3.432,2.618,7.014,5.439,10.586c0,0,0.708,0.958,1.974,2.32
					c0.632,0.683,1.399,1.461,2.28,2.283c0.891,0.851,1.894,1.741,2.985,2.602c1.092,0.865,2.268,1.684,3.52,2.429
					c1.264,0.793,2.598,1.491,3.992,2.017c2.808,1.099,5.862,1.645,9.368,1.174l-0.008-0.067c3.24-0.556,5.907-1.947,8.24-3.677
					c0.581-0.444,1.14-0.92,1.675-1.419c0.535-0.483,1.049-0.958,1.539-1.467c0.982-1.009,1.879-2.084,2.688-3.156
					c0.811-1.087,1.525-2.122,2.146-3.077c0.621-0.965,1.146-1.867,1.569-2.64c0.849-1.547,1.276-2.58,1.276-2.58
					c1.886-4.159,2.738-8.063,2.74-11.598c0.012-3.533-0.82-6.699-2.027-9.356C168.438,26.574,164.529,23.543,164.529,23.543z"/>
			</g>
			<g>
				<path fill="#EDDA7D" stroke="#C89D2C" stroke-width="5" stroke-miterlimit="10" d="M227.105,40.656
					c-0.666-1.203-1.037-4.707-1.357-7.987c-0.279-3.303-0.534-6.319-0.534-6.319c-0.651-5.337-2.556-8.764-4.489-10.805
					c-1.959-2.011-3.901-2.742-4.808-2.985c-1.254-0.471-3.293-0.738-5.862-0.253c-1.289,0.258-2.703,0.692-4.234,1.483
					c-1.535,0.807-3.172,1.918-4.863,3.429c0,0-2.184,2.058-4.575,4.312c-2.427,2.285-5.038,4.709-6.323,5.112
					c0,0-0.281,0.126-0.761,0.384c-0.479,0.264-1.153,0.631-1.95,1.203c-1.59,1.117-3.615,2.809-5.408,5.087
					c-1.797,2.254-3.363,5.19-4.19,8.64c-0.839,3.457-0.929,7.404-0.083,11.872c0,0,0.182,1.186,0.669,2.998
					c0.485,1.813,1.267,4.247,2.413,6.733c0.562,1.291,1.218,2.599,1.979,3.85c0.765,1.244,1.633,2.436,2.608,3.612
					c1.979,2.266,4.435,4.152,7.738,5.378l0.024-0.062c0.779,0.253,1.555,0.431,2.325,0.544c0.767,0.127,1.505,0.247,2.253,0.278
					c1.492,0.074,2.98-0.087,4.391-0.285c1.424-0.226,2.832-0.621,4.182-1.087c1.328-0.425,2.611-0.949,3.818-1.513
					c1.205-0.563,2.332-1.167,3.345-1.753c0.997-0.562,1.878-1.109,2.61-1.593c1.468-0.967,2.326-1.678,2.326-1.678
					c3.599-2.786,6.172-5.839,7.824-8.967c1.661-3.122,2.407-6.319,2.585-9.242c0.089-1.456,0.052-2.86-0.088-4.103
					c-0.144-1.235-0.364-2.345-0.598-3.276C227.605,41.799,227.105,40.656,227.105,40.656z"/>
			</g>
			<g>
				<path fill="#EDDA7D" stroke="#C89D2C" stroke-width="5" stroke-miterlimit="10" d="M274.516,84.903
					c-0.037-0.679,0.303-1.853,0.783-3.23c0.467-1.366,1.096-2.954,1.717-4.478c1.246-3.044,2.451-5.841,2.451-5.841
					c1.92-5.044,1.795-8.934,1.049-11.649c-0.8-2.683-2.179-4.227-2.865-4.86c-0.894-0.994-2.562-2.181-5.062-2.937
					c-1.258-0.368-2.71-0.639-4.434-0.647c-1.731,0.002-3.693,0.226-5.891,0.777c0,0-2.892,0.81-6.058,1.697
					c-3.206,0.891-6.642,1.818-7.964,1.575c0,0-0.307-0.02-0.852-0.015c-0.537-0.002-1.328,0.04-2.293,0.167
					c-1.924,0.244-4.5,0.791-7.146,1.966c-2.642,1.159-5.418,3.052-7.746,5.7c-2.349,2.656-4.29,6.134-5.604,10.453
					c0,0-0.386,1.126-0.804,2.963c-0.417,1.833-0.866,4.358-1.009,7.098c-0.082,1.382-0.127,2.867-0.031,4.329
					c0.092,1.467,0.319,2.919,0.639,4.419c0.701,2.939,2.018,5.756,4.383,8.393l0.051-0.044c0.577,0.588,1.186,1.107,1.818,1.568
					c0.606,0.482,1.221,0.921,1.869,1.3c0.646,0.38,1.313,0.71,2.002,0.996c0.678,0.292,1.332,0.572,2.024,0.796
					c1.364,0.462,2.817,0.753,4.208,0.981c1.377,0.237,2.762,0.366,4.094,0.424c2.687,0.102,5.082-0.029,6.823-0.205
					c1.75-0.179,2.842-0.412,2.842-0.412c4.483-0.806,8.179-2.32,11.091-4.326c2.918-1.998,5.059-4.483,6.565-6.991
					c0.756-1.251,1.354-2.503,1.828-3.681c0.448-1.163,0.761-2.246,0.985-3.178C274.432,86.146,274.516,84.903,274.516,84.903z"/>
			</g>
			<g>
				<path fill="#EDDA7D" stroke="#C89D2C" stroke-width="5" stroke-miterlimit="10" d="M295.957,146.145
					c0.624-1.232,3.244-3.521,5.794-5.65c2.563-2.104,4.905-4.026,4.905-4.026c4-3.562,5.779-7.08,6.341-9.827
					c0.546-2.754,0.047-4.769-0.266-5.653c-0.325-1.299-1.267-3.129-3.12-4.97c-0.944-0.914-2.102-1.834-3.627-2.644
					c-1.534-0.807-3.377-1.523-5.58-2.059c0,0-2.937-0.629-6.15-1.319c-3.256-0.701-6.732-1.477-7.793-2.307
					c0,0-0.263-0.16-0.747-0.408c-0.481-0.249-1.184-0.587-2.104-0.92c-1.818-0.676-4.358-1.386-7.25-1.57
					c-2.869-0.202-6.205,0.189-9.5,1.458c-3.312,1.267-6.639,3.447-9.811,6.666c0,0-0.874,0.823-2.092,2.254
					c-1.218,1.429-2.785,3.455-4.182,5.81c-0.729,1.192-1.446,2.477-2.043,3.813c-0.596,1.336-1.078,2.727-1.493,4.197
					c-0.743,2.917-0.903,6.007-0.037,9.424l0.065-0.016c0.232,0.786,0.524,1.526,0.867,2.226c0.348,0.699,0.652,1.379,1.055,2.013
					c0.766,1.275,1.777,2.402,2.729,3.455c0.991,1.045,2.101,1.983,3.259,2.83c1.145,0.849,2.264,1.615,3.418,2.288
					c2.271,1.35,4.561,2.346,6.154,3.007c1.621,0.66,2.691,0.963,2.691,0.963c4.322,1.381,8.291,1.762,11.809,1.343
					c3.516-0.409,6.581-1.612,9.1-3.126c2.545-1.509,4.369-3.311,5.668-4.753C295.295,147.205,295.957,146.145,295.957,146.145z"/>
			</g>
		</g>
	</g>
</g>
</svg>
