<?xml version="1.0" encoding="utf-8"?>
<!-- Generator: Adobe Illustrator 16.0.0, SVG Export Plug-In . SVG Version: 6.00 Build 0)  -->
<!DOCTYPE svg PUBLIC "-//W3C//DTD SVG 1.1//EN" "http://www.w3.org/Graphics/SVG/1.1/DTD/svg11.dtd">
<svg version="1.1" id="Layer_1" xmlns="http://www.w3.org/2000/svg" xmlns:xlink="http://www.w3.org/1999/xlink" x="0px" y="0px"
	 width="189.635px" height="109.65px" viewBox="0 0 189.635 109.65" enable-background="new 0 0 189.635 109.65"
	 xml:space="preserve">
<g id="sunflower_2_">
	<path fill="#87A566" stroke="#567244" stroke-miterlimit="10" d="M125.528,45.262c0,0,16.957-16.985,47.238,4.042
		c0,0,18.438,12.797,13.205,13.144c0,0-17.22-1.33-24.806,6.646c0,0-14.625,13.15-31.261,5.433
		C129.906,74.525,111.545,64.46,125.528,45.262z"/>
	<path fill="#87A566" stroke="#567244" stroke-miterlimit="10" d="M2.707,87.848c0,0,23.905-56.73,68.339-37.422
		c0,0,15.105,42.882-18.187,47.056c0,0-9.681,0.188-13.37-2.794C39.489,94.688,21.08,80.2,2.707,87.848z"/>
	<path fill="#EDDA7D" stroke="#C89D2C" stroke-miterlimit="10" d="M73.552,44.256c0,0-10.376-4.379-12.816-17.403
		c0,0-0.605-1.227-1.561-2.785c0,0-3.375-5.966-1.614-11.214c0,0,5.395,5.118,9.542,4.466c0,0,15.529,1.302,15.304,15.029
		c0,0-2.575,1.064-4.328,4.414C78.079,36.764,79.617,39.816,73.552,44.256z"/>
	<path fill="#EDDA7D" stroke="#C89D2C" stroke-miterlimit="10" d="M94.729,31.25c0,0,6.276-20.278-10.411-26.515
		c0,0-11.768-3.597-12.327-2.904c0,0,10.41,6.692,5.261,13.777c0,0-0.927,15.069,7.098,17.167L94.729,31.25z"/>
	<path fill="#F4E04D" stroke="#FED00F" stroke-miterlimit="10" d="M99.276,4.621c0,0,13.375,6.8-2.144,27.427l-5.114-0.51
		c0,0-0.816-13.619,5.77-21.066C97.79,10.472,100.377,7.034,99.276,4.621z"/>
	<path fill="#EDDA7D" stroke="#C89D2C" stroke-miterlimit="10" d="M120.72,4.026c0,0-1.098,11.502-10.457,12.709
		c0,0-13.857,2.528-11.768,16.223l13.222,9.347c0,0,15.916-6.963,10.044-18.568c0,0-2.328-2.07-0.025-4.214
		C121.735,19.521,128.058,9.571,120.72,4.026z"/>
	<path fill="#F4E04D" stroke="#FED00F" stroke-miterlimit="10" d="M126.429,25.979c0,0-2.589,3.438-5.32,3.519
		c0,0-7.812,1.885-9.656,10.304l2.254,3.346C113.706,43.147,131.901,33.832,126.429,25.979z"/>
	<path fill="#EDDA7D" stroke="#C89D2C" stroke-miterlimit="10" d="M138.151,29.161c0,0-5.514-4.265-11.297,4.786
		c0,0-9.77-0.647-15.908,5.065c-6.139,5.714,0.506,0.789,0.506,0.789l9.104,14.212c0,0,15.344,1.53,11.051-11.084
		C131.604,42.929,132.013,34.874,138.151,29.161z"/>
	<path fill="#F4E04D" stroke="#FED00F" stroke-miterlimit="10" d="M150,55.309c0,0-3.701-1.081-4.742-0.97
		c0,0-7.891-10.756-23.883-2.521c0,0-0.203,4.027,1.53,4.476c1.732,0.447,13.363-1.211,15.781,1.695
		C138.688,57.99,146.265,61.82,150,55.309z"/>
	<path fill="#EDDA7D" stroke="#C89D2C" stroke-miterlimit="10" d="M120.954,57.767c0,0,17.847-8.644,23.977,7.359
		c0,0,1.762,4.661,6.45,7.115c0,0,3.722,1.29,0.19,3.773c0,0-2.174-0.611-2.791-2.442c0,0-7.262-6.817-14.518,0.278
		c0,0-15.66,1.455-13.871-9.488L120.954,57.767z"/>
	<path fill="#F4E04D" stroke="#FED00F" stroke-miterlimit="10" d="M117.44,66.363c0,0,15.475-1.224,17.248,5.547
		c0,0,3.619,8.26,5.211,9.354c0,0,5.381,3.013,4.384,3.54c0,0-7.226,5.406-17.033-1.562C127.25,83.242,114.194,77.462,117.44,66.363
		z"/>
	<path fill="#EDDA7D" stroke="#C89D2C" stroke-miterlimit="10" d="M47.247,24.916c0,0,12.51,8.58,12.439,13.857
		c0,0,0.537,9.009,12.992,9.159c0,0,0.147-6.551,1.66-8.188C74.338,39.745,68.525,24.761,47.247,24.916z"/>
	<path fill="#EDDA7D" stroke="#C89D2C" stroke-miterlimit="10" d="M37.644,33.738c0,0-3.957-5.481-1.721,1.659
		c0,0,6.415,24.618,35.123,15.028c0,0,2.279-2.35,0.555-4.697c0,0-6.411-10.704-22.823-6.427
		C48.778,39.301,41.601,39.22,37.644,33.738z"/>
	<path fill="#F4E04D" stroke="#FED00F" stroke-miterlimit="10" d="M39.786,55.86c0,0-3.403-0.271-0.222-2.085
		c0,0,21.771-11.382,31.428-1.866c0,0,4.574,7.314-15.458,13.241c0,0-5.302-0.279-5.425-3.43
		C50.109,61.72,47.797,55.852,39.786,55.86z"/>
	<path fill="#EDDA7D" stroke="#C89D2C" stroke-miterlimit="10" d="M73.246,55.251c0,0-5.138-2.958-9.582-0.877
		c0,0-14.448,4.913-11.027,21.204c0,0,0.899,0.537,2.213-2.978c0,0,3.362-6.049,5.319-3.518c0,0,0.962,7.065-1.282,11.731
		c0,0-0.403,2.153,4.356-0.674c0,0,16.972-4.968,12.718-21.172C75.961,58.97,75.352,55.237,73.246,55.251z"/>
	<path fill="#473923" d="M71.255,43.973c0,0,1.88-4.628,5.46-7.644c0,0,6.946-12.494,27.468-3.924c0,0,24.771,12.861,19.137,29.75
		c0,0-3.194,14.57-8.816,13.746c0,0-6.438-1.055-9.809,2.941c0,0-4.631-4.885-5.715-3.188c0,0,1.101,5.892-4.355-0.804
		c0,0-2.588-3.52-8.437-0.524c0,0,2.232-5.771-2.116-7.998c0,0-2.099-7.842-7.708-4.082c0,0,0.083-6.65-3.926-7.172
		c0,0-1.923-4.698-3.782-4.343C68.654,50.733,74.06,49.525,71.255,43.973z"/>
	<path fill="#EDDA7D" stroke="#C89D2C" stroke-miterlimit="10" d="M114.584,73.204c0,0,15.873,2.528,14.403,14.491
		c0,0-0.409,8.056-1.451,8.166c0,0-5.094-0.303-5.46-5.743c0,0-2.572-4.365-6.513-3.735c0,0-8.485-2.47-5.619-11.209
		C109.944,75.174,112.739,71.714,114.584,73.204z"/>
	<path fill="#F4E04D" stroke="#FED00F" stroke-miterlimit="10" d="M83.748,64.782c0,0-0.602-9.635-8.545-2.042
		c0,0-4.166,4.447-2.886,10.531c0,0,0.063,6.53-3.102,7.5c0,0,5.134,3.672,18.135-8.888C87.35,71.885,89.654,66.79,83.748,64.782z"
		/>
	<path fill="#F4E04D" stroke="#FED00F" stroke-miterlimit="10" d="M88.943,72.98c0,0-0.977,0.736-1.214-0.503
		c0,0-0.943-3.904-9.012,3.488c0,0-1.605,1.752-0.945,4c0,0-1.347,3.201-2.355,3.625c0,0-2.532,1.957,2.988,2.318
		C78.405,85.909,89.463,85.787,88.943,72.98z"/>
	<path fill="#EDDA7D" stroke="#C89D2C" stroke-miterlimit="10" d="M95.27,73.996c0,0-5.943-4.323-7.056,1.066
		c0,0-2.37,1.517-3.338,3.308c0,0-1.137,3.178-0.867,4.729c0,0-5.883,3.154-7.065,5.917c0,0-4.211,4.032-5.022,4.329
		c0,0,4.892,1.379,12.559-1.861c0,0-1.226,7.3-2.541,8.811c0,0,16.411-1.323,15.7-22.86C97.638,77.435,96.704,74.581,95.27,73.996z"
		/>
	<path fill="#F4E04D" stroke="#FED00F" stroke-miterlimit="10" d="M98.799,84.376c0,0-6.124,4.867-1.028,17.082
		c0,0,1.609,2.256-0.604,5.229c0,0,13.418-4.694,7.869-29.092C105.036,77.597,102.409,77.667,98.799,84.376z"/>
	<path fill="#F4E04D" stroke="#FED00F" stroke-miterlimit="10" d="M110.707,75.413c0,0-5.903-0.005-5.58,5.021
		c0,0,1.495,7.115,6.866,7.07c0,0,3.22,2.504,3.318,3.441c0,0,1.682,1.932,1.813-1.773c0,0,1.797-7.888-4.081-8.633
		C113.044,80.54,109.491,77.86,110.707,75.413z"/>
	<path fill="#EDDA7D" stroke="#C89D2C" stroke-miterlimit="10" d="M98.079,77.601c0,0-0.33-4.077,2.377-3.416
		c0,0,8.119,1.98,13.082,14.947c0,0,2.732,9.829-3.061,15.823c0,0-1.065-0.096-1.728-2.346c0,0-1.388-3.12-6.013-4
		c0,0-8.514-3.731-5.209-15.259C97.53,83.352,97.625,78.281,98.079,77.601z"/>
</g>
</svg>
