<?xml version="1.0" encoding="utf-8"?>
<!-- Generator: Adobe Illustrator 16.0.0, SVG Export Plug-In . SVG Version: 6.00 Build 0)  -->
<!DOCTYPE svg PUBLIC "-//W3C//DTD SVG 1.1//EN" "http://www.w3.org/Graphics/SVG/1.1/DTD/svg11.dtd">
<svg version="1.1" id="Layer_1" xmlns="http://www.w3.org/2000/svg" xmlns:xlink="http://www.w3.org/1999/xlink" x="0px" y="0px"
	 width="184.079px" height="204.492px" viewBox="0 0 184.079 204.492" enable-background="new 0 0 184.079 204.492"
	 xml:space="preserve">
<g>
	<g>
		<path fill="#EDDA7D" stroke="#442E22" stroke-width="1.5" stroke-miterlimit="10" d="M39.764,37.845
			c-0.719-0.258-1.201-0.591-1.444-0.995c-0.244-0.404-0.227-1.146,0.055-2.225c0.168-0.619,0.473-1.063,0.917-1.332
			c0.444-0.268,1.303-0.244,2.575,0.07c0.385,0.137,0.858,0.203,1.419,0.2c0.561-0.003,1.016-0.11,1.365-0.32
			c1.476-0.891,1.851-1.938,1.124-3.145c-0.22-0.365-0.607-0.548-1.159-0.551c-0.553-0.001-1.166,0.124-1.836,0.376
			c-0.671,0.253-1.428,0.468-2.274,0.642c-0.848,0.176-1.672,0.278-2.476,0.309c-0.806,0.03-1.627-0.193-2.467-0.671
			c-0.841-0.479-1.567-1.226-2.179-2.242c-0.841-1.396-1.057-2.928-0.644-4.594c0.411-1.666,1.515-3.041,3.309-4.122
			c0.952-0.574,1.896-0.975,2.829-1.202c0.935-0.229,1.628-0.306,2.083-0.234l0.868,0.094c0.769,0.164,1.251,0.404,1.441,0.722
			c0.191,0.317,0.264,0.868,0.218,1.653c-0.062,1.119-0.376,1.851-0.948,2.195c-0.333,0.201-0.842,0.291-1.524,0.271
			c-0.067-0.003-0.207-0.026-0.418-0.073c-0.211-0.045-0.396-0.074-0.555-0.087c-0.458-0.005-0.944,0.147-1.46,0.459
			s-0.87,0.692-1.062,1.145c-0.193,0.451-0.159,0.895,0.105,1.332c0.262,0.437,0.678,0.667,1.245,0.692
			c0.568,0.026,1.181-0.095,1.842-0.363c0.66-0.269,1.408-0.519,2.241-0.751c0.834-0.232,1.639-0.388,2.415-0.466
			c0.775-0.078,1.578,0.114,2.409,0.576c0.831,0.463,1.558,1.21,2.18,2.241c0.621,1.032,0.963,2.064,1.024,3.099
			c0.06,1.035-0.113,1.967-0.521,2.798c-0.778,1.616-1.898,2.864-3.357,3.745c-0.746,0.45-1.508,0.785-2.283,1.004
			c-0.777,0.22-1.453,0.319-2.028,0.299c-1.148-0.002-2.032-0.14-2.652-0.415L39.764,37.845z"/>
		<path fill="#EDDA7D" stroke="#442E22" stroke-width="1.5" stroke-miterlimit="10" d="M60.27,30.187
			c-1.747,0.675-3.45,0.572-5.11-0.306c-1.661-0.878-2.859-2.268-3.594-4.17l-1.753-4.538c-0.161-0.415-0.265-0.723-0.312-0.923
			c-0.048-0.2-0.062-0.453-0.041-0.76c0.062-0.56,0.646-1.054,1.752-1.48c1.21-0.468,2.047-0.414,2.508,0.163
			c0.211,0.236,0.433,0.657,0.667,1.263l1.753,4.537c0.275,0.709,0.691,1.185,1.251,1.425c0.56,0.241,1.181,0.229,1.864-0.035
			c0.684-0.264,1.157-0.685,1.418-1.263c0.265-0.579,0.265-1.205,0.004-1.88l-1.773-4.591c-0.153-0.396-0.256-0.699-0.306-0.909
			c-0.051-0.208-0.058-0.47-0.019-0.782c0.051-0.536,0.629-1.018,1.736-1.445c1.089-0.421,1.844-0.445,2.267-0.071
			c0.221,0.212,0.383,0.413,0.486,0.602c0.103,0.189,0.232,0.481,0.385,0.88L67,25.082c0.147,0.381,0.246,0.675,0.296,0.884
			c0.051,0.208,0.054,0.461,0.009,0.756c-0.085,0.55-0.665,1.032-1.737,1.446c-1.054,0.407-1.782,0.45-2.185,0.129
			c-0.287-0.227-0.51-0.548-0.67-0.963c-0.022,0.148-0.112,0.381-0.266,0.699c-0.157,0.318-0.315,0.599-0.48,0.841
			C61.527,29.481,60.961,29.919,60.27,30.187z"/>
		<path fill="#EDDA7D" stroke="#442E22" stroke-width="1.5" stroke-miterlimit="10" d="M74.398,10.994
			c1.818-0.354,3.468,0.049,4.949,1.206c1.479,1.157,2.413,2.736,2.802,4.737l0.933,4.803c0.081,0.419,0.128,0.736,0.142,0.95
			c0.013,0.215-0.02,0.462-0.097,0.741c-0.16,0.541-0.822,0.924-1.986,1.15c-1.292,0.25-2.103,0.059-2.434-0.576
			c-0.169-0.288-0.313-0.741-0.434-1.36l-0.932-4.803c-0.145-0.746-0.472-1.287-0.98-1.622c-0.509-0.336-1.123-0.434-1.841-0.295
			c-0.719,0.14-1.258,0.472-1.62,0.994c-0.36,0.523-0.472,1.14-0.334,1.849l0.937,4.831c0.081,0.419,0.129,0.735,0.142,0.949
			c0.013,0.215-0.028,0.464-0.124,0.746c-0.141,0.537-0.795,0.919-1.959,1.145c-1.146,0.223-1.895,0.113-2.244-0.328
			c-0.181-0.249-0.305-0.475-0.372-0.679c-0.068-0.204-0.143-0.515-0.224-0.934l-1.875-9.661c-0.077-0.4-0.123-0.707-0.137-0.922
			c-0.013-0.215,0.028-0.463,0.124-0.746c0.166-0.504,0.823-0.868,1.969-1.091c1.11-0.215,1.833-0.138,2.169,0.231
			c0.242,0.274,0.405,0.629,0.49,1.066c0.048-0.142,0.177-0.355,0.386-0.643c0.208-0.285,0.417-0.523,0.625-0.715
			C73.011,11.48,73.652,11.139,74.398,10.994z"/>
		<path fill="#EDDA7D" stroke="#442E22" stroke-width="1.5" stroke-miterlimit="10" d="M85.1,22.8
			c-0.359-0.212-0.545-0.558-0.561-1.04c-0.015-0.482,0.315-1.224,0.99-2.228c0.193-0.321,0.518-0.488,0.972-0.502
			c0.454-0.015,1.078,0.194,1.869,0.624s1.503,0.636,2.133,0.616c1.13-0.034,1.688-0.273,1.674-0.719
			c-0.011-0.352-0.64-0.593-1.885-0.721c-1.173-0.131-2.344-0.531-3.514-1.2c-0.547-0.316-1.007-0.827-1.38-1.529
			c-0.374-0.703-0.576-1.545-0.606-2.526c-0.089-2.927,1.876-4.452,5.896-4.574c1.315-0.04,2.677,0.233,4.085,0.821
			c0.657,0.276,0.992,0.637,1.006,1.082c0.014,0.444-0.174,0.997-0.562,1.657c-0.388,0.661-0.794,0.998-1.221,1.011
			c-0.222,0.008-0.638-0.119-1.249-0.379c-0.61-0.26-1.268-0.379-1.971-0.357c-1.094,0.033-1.634,0.254-1.621,0.661
			c0.017,0.557,0.658,0.898,1.923,1.026c1.227,0.093,2.422,0.409,3.589,0.948c0.545,0.243,1.008,0.678,1.389,1.307
			c0.381,0.628,0.584,1.423,0.615,2.387c0.028,0.963-0.127,1.788-0.468,2.476s-0.831,1.207-1.468,1.561
			c-1.168,0.611-2.647,0.942-4.434,0.997C88.513,24.253,86.779,23.787,85.1,22.8z"/>
		<path fill="#EDDA7D" stroke="#442E22" stroke-width="1.5" stroke-miterlimit="10" d="M107.858,10.305
			c1.838,0.243,3.273,1.145,4.312,2.702c1.035,1.558,1.42,3.348,1.152,5.368l-0.643,4.851c-0.057,0.423-0.113,0.738-0.167,0.946
			c-0.056,0.207-0.175,0.439-0.358,0.694c-0.303,0.446-1.041,0.591-2.218,0.436c-1.12-0.147-1.786-0.479-1.999-0.993
			c-0.111-0.295-0.166-0.555-0.164-0.779c0.002-0.224,0.033-0.557,0.09-0.997l0.641-4.823c0.1-0.753-0.035-1.369-0.401-1.848
			c-0.368-0.479-0.876-0.762-1.528-0.848c-0.652-0.087-1.252,0.035-1.801,0.364s-0.893,0.737-1.032,1.224l-0.706,5.347
			c-0.057,0.423-0.113,0.737-0.17,0.945c-0.055,0.208-0.174,0.438-0.357,0.695c-0.303,0.446-1.041,0.592-2.217,0.436
			c-1.156-0.153-1.832-0.495-2.023-1.024c-0.092-0.293-0.139-0.542-0.139-0.748c-0.002-0.205,0.027-0.529,0.086-0.971l2.184-16.48
			c0.055-0.422,0.111-0.737,0.166-0.944c0.057-0.208,0.164-0.432,0.328-0.673c0.322-0.461,1.072-0.614,2.248-0.459
			c1.158,0.153,1.822,0.494,1.996,1.021c0.109,0.295,0.166,0.551,0.164,0.766c0,0.215-0.027,0.533-0.084,0.956l-0.807,6.091
			C105.479,10.56,106.627,10.142,107.858,10.305z"/>
		<path fill="#EDDA7D" stroke="#442E22" stroke-width="1.5" stroke-miterlimit="10" d="M116.995,14.438
			c0.109-0.412,0.203-0.718,0.285-0.917c0.082-0.198,0.221-0.416,0.418-0.651c0.374-0.399,1.133-0.447,2.279-0.145
			c0.861,0.228,1.43,0.54,1.709,0.939c0.236,0.332,0.296,0.76,0.178,1.284c-0.031,0.184-0.09,0.446-0.18,0.786l-2.486,9.406
			c-0.109,0.413-0.204,0.719-0.285,0.917c-0.082,0.199-0.23,0.414-0.445,0.645c-0.355,0.405-1.107,0.455-2.254,0.152
			c-1.129-0.299-1.754-0.723-1.877-1.273c-0.055-0.301-0.069-0.554-0.044-0.759c0.025-0.204,0.095-0.521,0.208-0.951L116.995,14.438
			z M122.735,10.621c-0.203,0.225-0.49,0.346-0.859,0.363c-0.368,0.018-0.834-0.049-1.4-0.198c-0.562-0.148-1.002-0.322-1.312-0.52
			c-0.312-0.197-0.5-0.448-0.564-0.753c-0.062-0.305-0.08-0.562-0.053-0.775c0.027-0.214,0.096-0.526,0.204-0.938
			c0.11-0.412,0.206-0.718,0.286-0.917c0.08-0.198,0.219-0.406,0.41-0.625c0.377-0.418,1.141-0.475,2.287-0.171
			c1.129,0.299,1.746,0.72,1.852,1.266c0.072,0.307,0.094,0.566,0.066,0.779c-0.027,0.214-0.096,0.526-0.205,0.938
			s-0.203,0.718-0.284,0.916C123.079,10.186,122.938,10.397,122.735,10.621z"/>
		<path fill="#EDDA7D" stroke="#442E22" stroke-width="1.5" stroke-miterlimit="10" d="M133.304,17.192
			c1.718,0.694,2.884,1.931,3.495,3.706c0.611,1.777,0.535,3.61-0.229,5.5l-1.832,4.537c-0.161,0.395-0.293,0.687-0.398,0.873
			c-0.106,0.188-0.268,0.377-0.485,0.568c-0.428,0.367-1.191,0.328-2.291-0.116c-1.221-0.492-1.797-1.096-1.729-1.808
			c0.016-0.334,0.141-0.793,0.377-1.377l1.832-4.537c0.285-0.703,0.307-1.335,0.062-1.894c-0.245-0.558-0.705-0.975-1.385-1.249
			s-1.312-0.291-1.899-0.048c-0.589,0.242-1.017,0.698-1.288,1.368l-1.844,4.562c-0.16,0.395-0.292,0.687-0.397,0.873
			c-0.106,0.188-0.276,0.374-0.511,0.559c-0.41,0.373-1.166,0.338-2.267-0.105c-1.081-0.438-1.649-0.938-1.702-1.499
			c-0.016-0.306,0.002-0.562,0.057-0.771c0.053-0.208,0.162-0.509,0.32-0.904l3.688-9.125c0.152-0.378,0.281-0.66,0.387-0.848
			c0.105-0.187,0.275-0.373,0.512-0.558c0.414-0.332,1.162-0.28,2.244,0.157c1.049,0.423,1.612,0.882,1.693,1.374
			c0.054,0.361-0.002,0.749-0.168,1.161c0.115-0.093,0.34-0.202,0.672-0.328c0.33-0.126,0.635-0.212,0.914-0.26
			C131.875,16.846,132.6,16.908,133.304,17.192z"/>
		<path fill="#EDDA7D" stroke="#442E22" stroke-width="1.5" stroke-miterlimit="10" d="M151.85,33.624
			c-0.603,0.969-1.288,1.535-2.057,1.701c-0.77,0.166-1.443,0.067-2.025-0.294l-5.597-3.479c-0.274,0.44-0.245,0.973,0.089,1.594
			c0.334,0.622,0.76,1.095,1.279,1.417c0.912,0.567,1.689,0.919,2.324,1.053l0.318,0.066c0.486,0.062,0.854,0.171,1.107,0.327
			c0.502,0.313,0.715,0.938,0.637,1.871c-0.059,0.551-0.182,0.978-0.367,1.276c-0.871,1.4-2.983,1.059-6.336-1.025
			c-1.164-0.724-2.074-1.568-2.73-2.532c-0.655-0.964-1.029-1.933-1.123-2.907c-0.197-1.891,0.191-3.624,1.17-5.198
			c1.232-1.982,2.86-3.17,4.882-3.561c2.021-0.391,3.993,0.011,5.913,1.204c2.188,1.36,3.313,3.13,3.379,5.308
			C152.739,31.598,152.45,32.656,151.85,33.624z M146.434,31.224c0.598,0.372,1.055,0.307,1.367-0.197
			c0.225-0.362,0.268-0.739,0.131-1.13c-0.139-0.392-0.465-0.747-0.977-1.065c-0.511-0.317-1.148-0.425-1.912-0.321
			c-0.762,0.104-1.291,0.393-1.584,0.865L146.434,31.224z"/>
	</g>
</g>
</svg>
