<?xml version="1.0" encoding="utf-8"?>
<!-- Generator: Adobe Illustrator 16.0.0, SVG Export Plug-In . SVG Version: 6.00 Build 0)  -->
<!DOCTYPE svg PUBLIC "-//W3C//DTD SVG 1.1//EN" "http://www.w3.org/Graphics/SVG/1.1/DTD/svg11.dtd">
<svg version="1.1" id="Layer_1" xmlns="http://www.w3.org/2000/svg" xmlns:xlink="http://www.w3.org/1999/xlink" x="0px" y="0px"
	 width="67.414px" height="36.635px" viewBox="0 0 67.414 36.635" enable-background="new 0 0 67.414 36.635" xml:space="preserve">
<g id="seed_3_">
	<path fill="#F9F4DC" stroke="#333333" stroke-miterlimit="10" d="M2.578,18.52c0,0-0.968,3.177,0.85,4.262
		c0,0-1.904,5.507,2.949,6.877c0,0,19.637,3.967,21.982,4.562c0,0,19.016,2.422,31.188-1.85c0,0,5.527-3.001,5.611-13.991
		c0,0,0.867-22.291-39.694-14.543C25.463,3.838,9.607,7.796,2.578,18.52z"/>
	<path fill="#333333" d="M3.376,25.623c0,0,1.001,3.874,6.64,2.364c0,0,15.215,0.199,20.03,2.492c0,0,33.513,12.021,35.204-14.181
		c0,0-6.025-23.625-44.603-7.655c0,0-19.998,5.754-17.162,14.108C3.486,22.752,2.339,24.031,3.376,25.623z"/>
	<path fill="#F9F4DC" d="M4.309,22.478c0,0,33.217-17.173,60.583-6.479c0,0-14.348-8.494-34.506-3.177
		C30.386,12.821,8.717,17.741,4.309,22.478z"/>
	<path fill="#F9F4DC" d="M3.238,23.958c0,0,57.639,5.255,61.416-5.087c0,0-9.699,6.057-31.831,5.377
		C32.823,24.248,4.757,24.017,3.238,23.958z"/>
</g>
</svg>
